<svg width="7" height="12" viewBox="0 0 7 12" fill="none" xmlns="http://www.w3.org/2000/svg">
<path d="M6.99976 5.99976C6.99976 5.77563 6.91406 5.58447 6.74268 5.41309L1.60107 0.383545C1.45605 0.238525 1.27808 0.166016 1.06714 0.166016C0.638672 0.166016 0.295898 0.495605 0.295898 0.924072C0.295898 1.13501 0.381592 1.32617 0.526611 1.47778L5.16724 5.99976L0.526611 10.5217C0.388184 10.6667 0.295898 10.8579 0.295898 11.0688C0.295898 11.5039 0.638672 11.8335 1.06714 11.8335C1.27808 11.8335 1.45605 11.761 1.60107 11.616L6.74268 6.58643C6.92065 6.41504 6.99976 6.22388 6.99976 5.99976Z" fill="#ADADAC"/>
</svg>
