<?xml version="1.0" standalone="no"?>
<!DOCTYPE svg PUBLIC "-//W3C//DTD SVG 20010904//EN"
 "http://www.w3.org/TR/2001/REC-SVG-20010904/DTD/svg10.dtd">
<svg version="1.0" xmlns="http://www.w3.org/2000/svg"
 width="300.000000pt" height="106.000000pt" viewBox="0 0 300.000000 106.000000"
 preserveAspectRatio="xMidYMid meet">

<g transform="translate(0.000000,106.000000) scale(0.100000,-0.100000)"
fill="#000000" stroke="none">
<path d="M902 1019 c-63 -12 -156 -66 -203 -116 -22 -24 -55 -74 -72 -111 -30
-63 -32 -73 -32 -182 0 -103 3 -121 27 -172 68 -146 200 -229 364 -229 115 0
181 27 260 105 77 77 105 144 112 269 l4 87 -191 0 -191 0 0 -80 0 -80 85 0
c47 0 85 -4 85 -9 0 -16 -51 -71 -81 -86 -43 -23 -127 -19 -174 8 -101 57
-134 204 -70 312 61 105 197 125 290 44 l33 -29 71 76 72 77 -21 23 c-32 33
-127 80 -188 93 -60 12 -118 13 -180 0z"/>
<path d="M2335 806 c-16 -7 -41 -25 -54 -40 -33 -35 -41 -33 -41 9 l0 35 -85
0 -85 0 0 -295 0 -295 95 0 95 0 0 170 c0 189 8 220 58 238 34 12 85 -6 97
-34 5 -11 10 -99 13 -196 l4 -178 93 0 94 0 3 184 c3 164 5 186 22 205 26 28
88 29 114 0 25 -26 32 -81 32 -250 l0 -139 95 0 95 0 0 203 c0 218 -8 268 -50
327 -29 41 -92 69 -152 70 -63 0 -95 -14 -144 -61 l-40 -39 -23 31 c-45 60
-162 88 -236 55z"/>
<path d="M1400 807 c0 -1 47 -133 105 -292 98 -268 105 -291 89 -302 -23 -17
-57 -16 -99 1 -19 8 -37 11 -39 7 -7 -10 -56 -147 -56 -154 0 -10 79 -36 128
-43 107 -14 200 34 247 126 22 44 68 167 201 538 l44 122 -103 0 -102 0 -49
-170 c-27 -94 -51 -169 -53 -167 -1 2 -24 78 -51 168 l-48 164 -107 3 c-59 1
-107 1 -107 -1z"/>
<path d="M10 600 l0 -160 110 0 110 0 0 40 0 40 -70 0 -70 0 0 120 0 120 -40
0 -40 0 0 -160z"/>
<path d="M308 665 c-36 -20 -58 -64 -58 -116 0 -33 6 -47 34 -75 30 -30 40
-34 84 -34 34 0 57 6 73 19 23 19 23 20 6 38 -12 12 -33 18 -64 18 -28 0 -48
5 -50 13 -4 9 15 12 72 12 l78 0 -6 42 c-7 56 -42 89 -98 94 -28 3 -54 -1 -71
-11z m92 -60 c11 -13 7 -15 -29 -15 -38 0 -50 8 -34 23 12 12 50 7 63 -8z"/>
</g>
</svg>
