<svg width="11" height="14" viewBox="0 0 11 14" fill="none" xmlns="http://www.w3.org/2000/svg">
<path d="M10.175 7.71884C9.19375 5.16884 5.7 5.03134 6.54375 1.32509C6.60625 1.05009 6.3125 0.837588 6.075 0.981338C3.80625 2.31884 2.175 5.00009 3.54375 8.51259C3.65625 8.80009 3.31875 9.06884 3.075 8.88134C1.94375 8.02509 1.825 6.79384 1.925 5.91259C1.9625 5.58759 1.5375 5.43134 1.35625 5.70009C0.93125 6.35009 0.5 7.40009 0.5 8.98134C0.7375 12.4813 3.69375 13.5563 4.75625 13.6938C6.275 13.8876 7.91875 13.6063 9.1 12.5251C10.4 11.3188 10.875 9.39384 10.175 7.71884ZM4.375 10.8626C5.275 10.6438 5.7375 9.99384 5.8625 9.41884C6.06875 8.52509 5.2625 7.65009 5.80625 6.23759C6.0125 7.40634 7.85 8.13759 7.85 9.41259C7.9 10.9938 6.1875 12.3501 4.375 10.8626Z" fill="#FF7324"/>
</svg>
