<svg width="30" height="31" viewBox="0 0 30 31" fill="none" xmlns="http://www.w3.org/2000/svg">
<rect y="0.5" width="30" height="30" rx="6" fill="#FF3A2F"/>
<path d="M8.45898 21.6172H22.5127C23.418 21.6172 23.9717 21.125 23.9717 20.3867C23.9717 19.4551 23.1279 18.6553 22.3369 17.8994C21.7744 17.3369 21.5986 16.2031 21.5195 15.2188C21.4932 14.6475 21.4492 14.1025 21.3789 13.584C20.9131 13.7773 20.4033 13.8916 19.8672 13.8916C17.5293 13.8916 15.6045 11.9668 15.6045 9.62012C15.6045 8.53906 16.0176 7.5459 16.6855 6.79883C16.3428 6.61426 15.9297 6.5 15.4814 6.5C14.1895 6.5 13.2314 7.39648 12.8623 8.55664C10.5947 9.37402 9.64551 11.6416 9.51367 14.8584C9.39941 16.0273 9.25 17.293 8.63477 17.8994C7.84375 18.6553 7 19.4551 7 20.3867C7 21.125 7.55371 21.6172 8.45898 21.6172ZM19.876 12.6523C21.5283 12.6523 22.9082 11.2812 22.9082 9.62012C22.9082 7.95898 21.5283 6.58789 19.876 6.58789C18.2148 6.58789 16.8438 7.95898 16.8438 9.62012C16.8438 11.2812 18.2148 12.6523 19.876 12.6523ZM15.4902 25.2383C17.0459 25.2383 18.1797 24.1221 18.2939 22.8477H12.6777C12.792 24.1221 13.9258 25.2383 15.4902 25.2383Z" fill="white"/>
</svg>
