<svg width="30" height="30" viewBox="0 0 30 30" fill="none" xmlns="http://www.w3.org/2000/svg">
<rect width="30" height="30" fill="white"/>
<rect width="30" height="30" rx="6" fill="#F79E1B"/>
<path d="M22.5804 8H8.41962C7.63455 8 7 8.63455 7 9.41667V19.8056C7 20.5877 7.63455 21.2222 8.41962 21.2222H22.5804C23.3655 21.2222 24 20.5877 24 19.8056V9.41667C24 8.63455 23.3655 8 22.5804 8ZM8.5967 9.41667H22.4033C22.5007 9.41667 22.5804 9.49635 22.5804 9.59375V10.8333H8.41962V9.59375C8.41962 9.49635 8.49931 9.41667 8.5967 9.41667ZM22.4033 19.8056H8.5967C8.49931 19.8056 8.41962 19.7259 8.41962 19.6285V14.6111H22.5804V19.6285C22.5804 19.7259 22.5007 19.8056 22.4033 19.8056ZM12.6667 16.8542V18.0347C12.6667 18.2295 12.5073 18.3889 12.3125 18.3889H10.1875C9.99271 18.3889 9.83333 18.2295 9.83333 18.0347V16.8542C9.83333 16.6594 9.99271 16.5 10.1875 16.5H12.3125C12.5073 16.5 12.6667 16.6594 12.6667 16.8542ZM18.3333 16.8542V18.0347C18.3333 18.2295 18.174 18.3889 17.9792 18.3889H13.9653C13.7705 18.3889 13.6111 18.2295 13.6111 18.0347V16.8542C13.6111 16.6594 13.7705 16.5 13.9653 16.5H17.9792C18.174 16.5 18.3333 16.6594 18.3333 16.8542Z" fill="white"/>
</svg>
